<svg xmlns="http://www.w3.org/2000/svg" fill="none" viewBox="32 24 20 20">
<g filter="url(#filter0_d_1151_7762)">
<path d="M51.2215 30.125C50.7196 28.9298 49.9895 27.8434 49.0719 26.9264C48.157 26.0078 47.0702 25.2774 45.8732 24.7768C44.647 24.2615 43.3295 23.9973 41.999 24H41.9542C40.6009 24.0067 39.2924 24.2746 38.0598 24.8014C36.8731 25.3071 35.7965 26.0388 34.8902 26.9554C33.9815 27.8703 33.2597 28.9529 32.7652 30.1429C32.2519 31.3803 31.9918 32.7077 32.0002 34.0469C32.0069 35.596 32.3782 37.1339 33.0717 38.5089V41.9018C33.0717 42.4688 33.5324 42.9286 34.0984 42.9286H37.4939C38.8782 43.6257 40.4059 43.9924 41.9565 44H42.0034C43.3411 44 44.6362 43.7411 45.8575 43.2344C47.0485 42.7397 48.1312 42.0179 49.0451 41.1094C49.9666 40.1964 50.6914 39.1295 51.1991 37.9397C51.7248 36.7076 51.9932 35.3973 51.9999 34.0447C52.0044 32.6853 51.7405 31.3661 51.2215 30.125ZM37.5342 35.0714C36.9437 35.0714 36.4627 34.5915 36.4627 34C36.4627 33.4085 36.9437 32.9286 37.5342 32.9286C38.1247 32.9286 38.6056 33.4085 38.6056 34C38.6056 34.5915 38.127 35.0714 37.5342 35.0714ZM41.999 35.0714C41.4084 35.0714 40.9275 34.5915 40.9275 34C40.9275 33.4085 41.4084 32.9286 41.999 32.9286C42.5895 32.9286 43.0704 33.4085 43.0704 34C43.0704 34.5915 42.5895 35.0714 41.999 35.0714ZM46.4637 35.0714C45.8732 35.0714 45.3923 34.5915 45.3923 34C45.3923 33.4085 45.8732 32.9286 46.4637 32.9286C47.0543 32.9286 47.5352 33.4085 47.5352 34C47.5352 34.5915 47.0543 35.0714 46.4637 35.0714Z" fill="#FF68C0"/>
</g>
<defs>
<filter id="filter0_d_1151_7762" x="0" y="0" width="84" height="84" filterUnits="userSpaceOnUse" color-interpolation-filters="sRGB">
<feFlood flood-opacity="0" result="BackgroundImageFix"/>
<feColorMatrix in="SourceAlpha" type="matrix" values="0 0 0 0 0 0 0 0 0 0 0 0 0 0 0 0 0 0 127 0" result="hardAlpha"/>
<feOffset dy="8"/>
<feGaussianBlur stdDeviation="16"/>
<feComposite in2="hardAlpha" operator="out"/>
<feColorMatrix type="matrix" values="0 0 0 0 1 0 0 0 0 0.407843 0 0 0 0 0.752941 0 0 0 0.64 0"/>
<feBlend mode="normal" in2="BackgroundImageFix" result="effect1_dropShadow_1151_7762"/>
<feBlend mode="normal" in="SourceGraphic" in2="effect1_dropShadow_1151_7762" result="shape"/>
</filter>
</defs>
</svg>