<svg width="164" height="44" viewBox="0 0 164 44" fill="none" xmlns="http://www.w3.org/2000/svg">
<path fill-rule="evenodd" clip-rule="evenodd" d="M27.5 29.8947V17.2631C27.5 15.8672 26.9356 14.5286 25.9309 13.5415C24.9262 12.5545 23.5636 12 22.1429 12H7.14286C6.57454 12 6.02949 12.2218 5.62762 12.6166C5.22576 13.0114 5 13.5469 5 14.1053V26.7369C5 28.1327 5.56441 29.4714 6.56907 30.4585C7.06652 30.9471 7.6571 31.3349 8.30705 31.5994C8.95701 31.8639 9.65364 32 10.3571 32H25.3571C25.9255 32 26.4705 31.7782 26.8724 31.3834C27.2743 30.9886 27.5 30.4531 27.5 29.8947ZM13.125 17C14.8507 17 16.25 18.3993 16.25 20.125C16.25 18.3993 17.6493 17 19.375 17C21.1007 17 22.5 18.3993 22.5 20.125C22.5 20.93 22.3864 22.1136 21.25 23.25C20.1136 24.3864 16.25 27 16.25 27C16.25 27 12.3864 24.3864 11.25 23.25C10.1136 22.1136 10 20.93 10 20.125C10 18.3993 11.3993 17 13.125 17Z" fill="#FF68C0"/>
<path d="M35.713 14.65C35.5517 14.5519 35.3664 14.5 35.1775 14.5C34.9885 14.5 34.8033 14.5519 34.6419 14.65L29.2857 17.703C29.1214 17.7979 28.9853 17.9346 28.8912 18.0993C28.797 18.264 28.7484 18.4507 28.75 18.6404V25.3624C28.7484 25.552 28.797 25.7387 28.8912 25.9034C28.9853 26.0681 29.1214 26.2049 29.2857 26.2998L34.6419 29.3528C34.805 29.4464 34.9893 29.497 35.1775 29.5C35.3659 29.4989 35.5507 29.448 35.713 29.3528C35.8773 29.2611 36.0137 29.127 36.1079 28.9644C36.2022 28.8018 36.2508 28.6167 36.2487 28.4287V15.574C36.2508 15.386 36.2022 15.201 36.1079 15.0384C36.0137 14.8758 35.8773 14.7416 35.713 14.65Z" fill="#FF68C0"/>
<path d="M51.976 33.112C51.304 33.112 50.6973 32.832 50.156 32.272C49.6147 31.712 49.344 30.788 49.344 29.5C49.344 28.4547 49.4653 27.428 49.708 26.42C49.9507 25.412 50.2213 24.3947 50.52 23.368C50.8373 22.3227 51.0987 21.2493 51.304 20.148C51.528 19.028 51.6027 17.852 51.528 16.62C51.024 16.6947 50.5293 16.8253 50.044 17.012C49.5587 17.1987 49.0827 17.4693 48.616 17.824C48.616 16.648 48.7187 15.696 48.924 14.968C49.1293 14.2213 49.5307 13.68 50.128 13.344C50.7253 13.008 51.612 12.84 52.788 12.84C53.4227 12.84 54.132 12.8867 54.916 12.98C55.7 13.0733 56.5027 13.1667 57.324 13.26C58.164 13.3533 58.9573 13.4 59.704 13.4C60.432 13.4 61.0853 13.3347 61.664 13.204C62.2427 13.0547 62.6907 12.7933 63.008 12.42C63.3813 12.6627 63.6613 12.9987 63.848 13.428C64.0533 13.8387 64.156 14.2867 64.156 14.772C64.156 15.276 64.0347 15.7707 63.792 16.256C63.568 16.7227 63.2133 17.1147 62.728 17.432C62.2427 17.7307 61.608 17.88 60.824 17.88C60.0027 17.88 59.1067 17.7493 58.136 17.488C57.1653 17.2267 56.1667 17.0027 55.14 16.816C55.2333 17.2267 55.2987 17.6373 55.336 18.048C55.392 18.4587 55.42 18.8787 55.42 19.308C55.42 19.7747 55.4013 20.2413 55.364 20.708C55.3267 21.156 55.2707 21.6227 55.196 22.108C55.588 21.9027 56.064 21.716 56.624 21.548C57.184 21.38 57.7533 21.24 58.332 21.128C58.9293 21.016 59.4613 20.96 59.928 20.96C60.2267 20.96 60.488 20.988 60.712 21.044C60.8987 21.436 60.992 21.912 60.992 22.472C60.992 23.368 60.768 24.2827 60.32 25.216L60.124 25.3C59.4333 24.9267 58.6307 24.6373 57.716 24.432C56.82 24.2267 55.8773 24.0867 54.888 24.012C54.7013 25.076 54.524 26.1587 54.356 27.26C54.188 28.3613 54.104 29.4907 54.104 30.648C54.104 30.8907 54.104 31.1427 54.104 31.404C54.1227 31.6653 54.1413 31.9267 54.16 32.188C53.544 32.804 52.816 33.112 51.976 33.112ZM67.4943 33.112C66.9903 33.112 66.4957 32.9907 66.0103 32.748C65.5437 32.4867 65.161 32.076 64.8623 31.516C64.5637 30.956 64.4143 30.2373 64.4143 29.36C64.4143 28.576 64.517 27.6613 64.7223 26.616C64.9463 25.552 65.189 24.4507 65.4503 23.312C65.7303 22.1733 65.973 21.0627 66.1783 19.98C66.3837 18.8973 66.477 17.936 66.4583 17.096C66.4583 16.2933 66.365 15.724 66.1783 15.388L66.1503 15.304C66.3557 14.7067 66.7197 14.24 67.2423 13.904C67.765 13.568 68.3157 13.4 68.8943 13.4C69.5477 13.4 70.1263 13.652 70.6303 14.156C71.153 14.6413 71.4143 15.4627 71.4143 16.62C71.4143 17.236 71.3397 17.9733 71.1903 18.832C71.041 19.672 70.8637 20.5773 70.6583 21.548C70.453 22.5 70.2383 23.4427 70.0143 24.376C69.809 25.3093 69.6317 26.168 69.4823 26.952C69.333 27.736 69.2583 28.38 69.2583 28.884C69.2583 29.4067 69.333 29.7707 69.4823 29.976C69.6317 30.1627 69.7997 30.256 69.9863 30.256C70.1917 30.256 70.3877 30.1813 70.5743 30.032C70.761 29.864 70.8823 29.7147 70.9383 29.584L71.1623 29.64C71.1437 30.312 70.9477 30.9093 70.5743 31.432C70.2197 31.9547 69.7623 32.3653 69.2023 32.664C68.661 32.9627 68.0917 33.112 67.4943 33.112ZM78.4662 18.02C77.7195 18.02 77.1035 17.796 76.6182 17.348C76.1515 16.8813 75.9182 16.3027 75.9182 15.612C75.9182 14.8653 76.1982 14.2213 76.7582 13.68C77.3182 13.1387 77.9995 12.868 78.8022 12.868C79.5489 12.868 80.1555 13.1013 80.6222 13.568C81.1075 14.0347 81.3502 14.6133 81.3502 15.304C81.3502 16.0507 81.0702 16.6947 80.5102 17.236C79.9502 17.7587 79.2689 18.02 78.4662 18.02ZM76.5062 33.112C75.7782 33.112 75.1249 32.86 74.5462 32.356C73.9675 31.8333 73.6782 31.0027 73.6782 29.864C73.6782 29.2107 73.7622 28.604 73.9302 28.044C74.1169 27.4653 74.3222 26.9053 74.5462 26.364C74.7889 25.8227 74.9942 25.3 75.1622 24.796C75.3489 24.2733 75.4422 23.76 75.4422 23.256C75.4422 22.808 75.3675 22.4907 75.2182 22.304C75.0689 22.0987 74.8915 21.996 74.6862 21.996C74.3689 21.996 74.0609 22.2013 73.7622 22.612L73.5662 22.5C73.6409 21.7533 73.8742 21.1187 74.2662 20.596C74.6769 20.0547 75.1715 19.6347 75.7502 19.336C76.3475 19.0373 76.9355 18.888 77.5142 18.888C78.2235 18.888 78.8395 19.1213 79.3622 19.588C79.8849 20.036 80.1462 20.7733 80.1462 21.8C80.1462 22.416 80.0529 23.0693 79.8662 23.76C79.6982 24.432 79.4929 25.104 79.2502 25.776C79.0262 26.448 78.8209 27.0733 78.6342 27.652C78.4662 28.2307 78.3822 28.7253 78.3822 29.136C78.3822 29.4907 78.4475 29.7427 78.5782 29.892C78.7275 30.0413 78.8862 30.116 79.0542 30.116C79.2222 30.116 79.3809 30.0693 79.5302 29.976C79.6982 29.864 79.8195 29.7427 79.8942 29.612L80.0902 29.668C80.0902 30.3587 79.9035 30.9653 79.5302 31.488C79.1755 31.992 78.7275 32.3933 78.1862 32.692C77.6449 32.972 77.0849 33.112 76.5062 33.112ZM86.0069 33.112C85.3349 33.112 84.7376 32.8413 84.2149 32.3C83.6923 31.74 83.4309 30.956 83.4309 29.948C83.4309 29.4627 83.4869 28.912 83.5989 28.296C83.7109 27.68 83.8416 27.0547 83.9909 26.42C84.1403 25.7667 84.2709 25.16 84.3829 24.6C84.4949 24.0213 84.5509 23.5453 84.5509 23.172C84.5509 22.78 84.4763 22.472 84.3269 22.248C84.1963 22.0053 84.0189 21.884 83.7949 21.884C83.4403 21.884 83.0763 22.1267 82.7029 22.612L82.5349 22.5C82.5163 22.2013 82.5816 21.8467 82.7309 21.436C82.8803 21.0253 83.1136 20.6333 83.4309 20.26C83.7483 19.868 84.1496 19.5413 84.6349 19.28C85.1389 19.0187 85.7269 18.888 86.3989 18.888C87.3883 18.888 88.1069 19.1773 88.5549 19.756C89.0029 20.316 89.2269 20.9973 89.2269 21.8C89.2269 21.9307 89.2176 22.0707 89.1989 22.22C89.1989 22.3507 89.1896 22.4813 89.1709 22.612C89.8429 21.3987 90.5429 20.4747 91.2709 19.84C92.0176 19.1867 92.7083 18.86 93.3429 18.86C93.9403 18.86 94.3789 19.0933 94.6589 19.56C94.9389 20.0267 95.0789 20.5867 95.0789 21.24C95.0789 21.8373 94.9576 22.444 94.7149 23.06C94.4909 23.676 94.1456 24.1893 93.6789 24.6C93.2309 24.992 92.6803 25.1787 92.0269 25.16L91.9149 25.104C91.8963 24.6187 91.7376 24.236 91.4389 23.956C91.1403 23.676 90.8043 23.536 90.4309 23.536C89.9269 23.536 89.4509 23.788 89.0029 24.292C88.5736 24.796 88.3589 25.524 88.3589 26.476C88.3589 27.0547 88.4243 27.68 88.5549 28.352C88.6856 29.024 88.7509 29.5933 88.7509 30.06C88.7509 30.62 88.6203 31.1333 88.3589 31.6C88.0976 32.0667 87.7616 32.44 87.3509 32.72C86.9403 32.9813 86.4923 33.112 86.0069 33.112ZM100.611 33.112C100.013 33.112 99.444 32.9813 98.9027 32.72C98.38 32.44 97.9507 32.0107 97.6147 31.432C97.2974 30.8533 97.1387 30.116 97.1387 29.22C97.1387 28.7347 97.1854 28.1 97.2787 27.316C97.372 26.532 97.4934 25.6733 97.6427 24.74C97.8107 23.8067 97.9787 22.8733 98.1467 21.94C97.7734 21.9587 97.4094 21.996 97.0547 22.052C96.7187 22.108 96.3827 22.1733 96.0467 22.248L95.9907 22.052C96.364 21.604 96.756 21.2213 97.1667 20.904C97.5774 20.5867 98.0067 20.3253 98.4547 20.12C98.6974 18.888 98.9027 17.824 99.0707 16.928C99.2387 16.0133 99.3227 15.472 99.3227 15.304C99.3227 14.9867 99.5654 14.7253 100.051 14.52C100.555 14.3147 101.115 14.212 101.731 14.212C102.272 14.212 102.776 14.3147 103.243 14.52C103.728 14.7253 104.055 15.0707 104.223 15.556C104.111 15.668 103.952 16.088 103.747 16.816C103.541 17.5253 103.327 18.3933 103.103 19.42C103.457 19.4387 103.821 19.4573 104.195 19.476C104.568 19.4947 104.951 19.5227 105.343 19.56C105.38 19.672 105.408 19.7933 105.427 19.924C105.445 20.0547 105.455 20.1947 105.455 20.344C105.455 20.624 105.408 20.932 105.315 21.268C105.24 21.5853 105.147 21.8747 105.035 22.136C104.587 22.0987 104.167 22.0613 103.775 22.024C103.383 21.968 103 21.9307 102.627 21.912C102.477 22.7147 102.337 23.5173 102.207 24.32C102.095 25.1227 102.001 25.8507 101.927 26.504C101.871 27.1573 101.843 27.6707 101.843 28.044C101.843 28.828 101.983 29.3507 102.263 29.612C102.561 29.8733 102.916 30.004 103.327 30.004C103.7 30.004 104.036 29.9293 104.335 29.78C104.633 29.6307 104.848 29.4533 104.979 29.248L105.259 29.332C105.147 30.0973 104.848 30.7693 104.363 31.348C103.877 31.908 103.299 32.3467 102.627 32.664C101.955 32.9627 101.283 33.112 100.611 33.112ZM114.43 33.112C113.683 33.112 113.002 32.9533 112.386 32.636C111.77 32.3 111.266 31.8147 110.874 31.18C110.855 31.5347 110.724 31.8613 110.482 32.16C110.239 32.4587 109.782 32.608 109.11 32.608C108.363 32.608 107.812 32.4027 107.458 31.992C107.103 31.5813 106.926 31.04 106.926 30.368C106.926 29.9573 106.982 29.3693 107.094 28.604C107.206 27.82 107.336 26.9427 107.486 25.972C107.654 25.0013 107.812 23.9933 107.962 22.948C108.13 21.9027 108.27 20.8853 108.382 19.896C108.494 18.9067 108.55 18.02 108.55 17.236C108.55 16.7133 108.522 16.256 108.466 15.864C108.41 15.472 108.307 15.164 108.158 14.94V14.772C108.587 14.3053 109.035 13.96 109.502 13.736C109.968 13.4933 110.416 13.372 110.846 13.372C111.48 13.372 112.022 13.624 112.47 14.128C112.918 14.632 113.142 15.4347 113.142 16.536C113.142 17.0773 113.086 17.8427 112.974 18.832C112.862 19.8027 112.722 20.7733 112.554 21.744C113.226 20.792 113.935 20.064 114.682 19.56C115.447 19.056 116.184 18.804 116.894 18.804C117.846 18.804 118.658 19.2613 119.33 20.176C120.002 21.072 120.338 22.4347 120.338 24.264C120.338 25.3467 120.207 26.42 119.946 27.484C119.703 28.5293 119.33 29.4813 118.826 30.34C118.322 31.18 117.696 31.852 116.95 32.356C116.222 32.86 115.382 33.112 114.43 33.112ZM113.03 30.284C113.627 30.284 114.131 30.0227 114.542 29.5C114.971 28.9773 115.288 28.3147 115.494 27.512C115.718 26.6907 115.83 25.8507 115.83 24.992C115.83 24.432 115.783 23.9 115.69 23.396C115.596 22.8733 115.456 22.4533 115.27 22.136C115.083 21.8 114.84 21.632 114.542 21.632C114.019 21.632 113.422 22.248 112.75 23.48C112.096 24.6933 111.583 26.42 111.21 28.66C111.546 29.7427 112.152 30.284 113.03 30.284ZM132.802 33.14C132.149 33.14 131.579 32.9253 131.094 32.496C130.609 32.0667 130.366 31.3667 130.366 30.396C130.366 30.3027 130.366 30.2093 130.366 30.116C130.366 30.0227 130.375 29.9293 130.394 29.836C129.834 30.956 129.199 31.7867 128.49 32.328C127.799 32.8507 127.099 33.112 126.39 33.112C125.737 33.112 125.121 32.888 124.542 32.44C123.963 31.9733 123.497 31.292 123.142 30.396C122.787 29.5 122.61 28.4173 122.61 27.148C122.61 25.8413 122.787 24.6747 123.142 23.648C123.515 22.6213 124.001 21.7533 124.598 21.044C125.195 20.3347 125.849 19.8027 126.558 19.448C127.267 19.0747 127.958 18.888 128.63 18.888C129.377 18.888 130.049 19.1213 130.646 19.588C131.243 20.036 131.654 20.7547 131.878 21.744C131.934 21.4267 131.971 21.1373 131.99 20.876C132.027 20.6147 132.046 20.4373 132.046 20.344C132.065 19.84 132.317 19.4667 132.802 19.224C133.306 18.9813 133.857 18.86 134.454 18.86C134.977 18.86 135.471 18.9627 135.938 19.168C136.405 19.3733 136.722 19.7187 136.89 20.204L136.946 20.372C136.722 20.876 136.498 21.4827 136.274 22.192C136.05 22.9013 135.845 23.648 135.658 24.432C135.471 25.1973 135.322 25.9533 135.21 26.7C135.098 27.428 135.042 28.072 135.042 28.632C135.042 29.248 135.107 29.6773 135.238 29.92C135.369 30.144 135.527 30.256 135.714 30.256C136.031 30.256 136.321 30.032 136.582 29.584L136.806 29.696C136.806 30.3307 136.601 30.9093 136.19 31.432C135.779 31.9547 135.266 32.3747 134.65 32.692C134.034 32.9907 133.418 33.14 132.802 33.14ZM128.238 29.584C128.723 29.584 129.255 29.1547 129.834 28.296C130.431 27.4187 130.945 26.168 131.374 24.544C131.411 24.376 131.449 24.2173 131.486 24.068C131.523 23.9 131.551 23.7413 131.57 23.592C131.271 22.9013 130.954 22.416 130.618 22.136C130.301 21.8373 129.983 21.688 129.666 21.688C129.199 21.688 128.761 21.94 128.35 22.444C127.958 22.9293 127.631 23.5453 127.37 24.292C127.127 25.0387 127.006 25.7853 127.006 26.532C127.006 27.5587 127.118 28.324 127.342 28.828C127.585 29.332 127.883 29.584 128.238 29.584ZM143.115 33.112C142.518 33.112 141.948 32.9813 141.407 32.72C140.884 32.44 140.455 32.0107 140.119 31.432C139.802 30.8533 139.643 30.116 139.643 29.22C139.643 28.7347 139.69 28.1 139.783 27.316C139.876 26.532 139.998 25.6733 140.147 24.74C140.315 23.8067 140.483 22.8733 140.651 21.94C140.278 21.9587 139.914 21.996 139.559 22.052C139.223 22.108 138.887 22.1733 138.551 22.248L138.495 22.052C138.868 21.604 139.26 21.2213 139.671 20.904C140.082 20.5867 140.511 20.3253 140.959 20.12C141.202 18.888 141.407 17.824 141.575 16.928C141.743 16.0133 141.827 15.472 141.827 15.304C141.827 14.9867 142.07 14.7253 142.555 14.52C143.059 14.3147 143.619 14.212 144.235 14.212C144.776 14.212 145.28 14.3147 145.747 14.52C146.232 14.7253 146.559 15.0707 146.727 15.556C146.615 15.668 146.456 16.088 146.251 16.816C146.046 17.5253 145.831 18.3933 145.607 19.42C145.962 19.4387 146.326 19.4573 146.699 19.476C147.072 19.4947 147.455 19.5227 147.847 19.56C147.884 19.672 147.912 19.7933 147.931 19.924C147.95 20.0547 147.959 20.1947 147.959 20.344C147.959 20.624 147.912 20.932 147.819 21.268C147.744 21.5853 147.651 21.8747 147.539 22.136C147.091 22.0987 146.671 22.0613 146.279 22.024C145.887 21.968 145.504 21.9307 145.131 21.912C144.982 22.7147 144.842 23.5173 144.711 24.32C144.599 25.1227 144.506 25.8507 144.431 26.504C144.375 27.1573 144.347 27.6707 144.347 28.044C144.347 28.828 144.487 29.3507 144.767 29.612C145.066 29.8733 145.42 30.004 145.831 30.004C146.204 30.004 146.54 29.9293 146.839 29.78C147.138 29.6307 147.352 29.4533 147.483 29.248L147.763 29.332C147.651 30.0973 147.352 30.7693 146.867 31.348C146.382 31.908 145.803 32.3467 145.131 32.664C144.459 32.9627 143.787 33.112 143.115 33.112ZM155.289 33.196C153.927 33.196 152.797 32.9253 151.901 32.384C151.005 31.824 150.333 31.096 149.885 30.2C149.437 29.2853 149.213 28.3053 149.213 27.26C149.213 26.2707 149.4 25.2813 149.773 24.292C150.165 23.284 150.725 22.3693 151.453 21.548C152.2 20.7267 153.096 20.064 154.141 19.56C155.205 19.056 156.4 18.804 157.725 18.804C159.368 18.804 160.563 19.1773 161.309 19.924C162.075 20.652 162.457 21.5387 162.457 22.584C162.457 23.48 162.215 24.3107 161.729 25.076C161.263 25.8227 160.637 26.4293 159.853 26.896C159.069 27.344 158.211 27.568 157.277 27.568C156.792 27.568 156.297 27.4933 155.793 27.344C155.289 27.1947 154.795 26.9613 154.309 26.644C154.403 27.8013 154.739 28.6413 155.317 29.164C155.896 29.6867 156.587 29.948 157.389 29.948C157.949 29.948 158.509 29.8453 159.069 29.64C159.629 29.416 160.143 29.136 160.609 28.8C161.095 28.4453 161.468 28.072 161.729 27.68L161.925 27.82C161.925 28.7907 161.72 29.6213 161.309 30.312C160.917 30.984 160.395 31.5347 159.741 31.964C159.088 32.3933 158.369 32.7107 157.585 32.916C156.82 33.1027 156.055 33.196 155.289 33.196ZM155.933 25.636C156.531 25.636 157.016 25.468 157.389 25.132C157.763 24.7773 158.043 24.3667 158.229 23.9C158.416 23.4333 158.509 23.0227 158.509 22.668C158.509 22.2387 158.388 21.884 158.145 21.604C157.903 21.3053 157.567 21.156 157.137 21.156C156.801 21.156 156.428 21.2773 156.017 21.52C155.625 21.7627 155.271 22.1827 154.953 22.78C154.636 23.3587 154.431 24.1707 154.337 25.216C154.935 25.496 155.467 25.636 155.933 25.636Z" fill="#FF68C0"/>
</svg>
