<svg width="9" height="14" viewBox="0 0 9 14" fill="none" xmlns="http://www.w3.org/2000/svg">
<path d="M3.612 13.5895V11.9095H5.516V13.5895H3.612ZM3.612 2.40345V0.723452H5.516V2.40345H3.612ZM4.578 12.3995C3.85467 12.3995 3.20833 12.2665 2.639 12.0005C2.06967 11.7298 1.60533 11.3495 1.246 10.8595C0.886667 10.3648 0.658 9.78145 0.56 9.10945L2.45 8.81545C2.576 9.36612 2.83967 9.80479 3.241 10.1315C3.647 10.4581 4.13 10.6215 4.69 10.6215C5.21733 10.6215 5.65367 10.4978 5.999 10.2505C6.349 10.0031 6.524 9.69745 6.524 9.33345C6.524 9.08612 6.447 8.88312 6.293 8.72445C6.14367 8.56112 5.908 8.42812 5.586 8.32545L3.094 7.55545C1.65667 7.11212 0.938 6.23479 0.938 4.92345C0.938 4.30745 1.08267 3.77312 1.372 3.32045C1.666 2.86779 2.079 2.52012 2.611 2.27745C3.14767 2.03012 3.78 1.90879 4.508 1.91345C5.17533 1.92279 5.768 2.04412 6.286 2.27745C6.804 2.50612 7.23567 2.83979 7.581 3.27845C7.931 3.71245 8.18533 4.24212 8.344 4.86745L6.384 5.21745C6.31867 4.91879 6.19733 4.65745 6.02 4.43345C5.84267 4.20479 5.621 4.02745 5.355 3.90145C5.09367 3.77079 4.802 3.70079 4.48 3.69145C4.172 3.68212 3.892 3.72645 3.64 3.82445C3.39267 3.92245 3.19433 4.06012 3.045 4.23745C2.90033 4.41012 2.828 4.60612 2.828 4.82545C2.828 5.06812 2.93067 5.27812 3.136 5.45545C3.34133 5.62812 3.668 5.77745 4.116 5.90345L5.894 6.40745C6.78533 6.66412 7.427 7.01179 7.819 7.45045C8.21567 7.88912 8.414 8.47012 8.414 9.19345C8.414 9.82812 8.253 10.3858 7.931 10.8665C7.609 11.3471 7.15867 11.7228 6.58 11.9935C6.006 12.2641 5.33867 12.3995 4.578 12.3995Z" fill="#FF68C0"/>
</svg>
