<svg width="12" height="12" viewBox="0 0 12 12" fill="none" xmlns="http://www.w3.org/2000/svg">
<path d="M5.04894 1.1165C5.3483 0.195191 6.6517 0.195193 6.95106 1.1165L7.5716 3.02634C7.70547 3.43836 8.08943 3.71732 8.52265 3.71732H10.5308C11.4995 3.71732 11.9023 4.95693 11.1186 5.52633L9.49395 6.70667C9.14347 6.96132 8.99681 7.41269 9.13068 7.82471L9.75122 9.73454C10.0506 10.6558 8.9961 11.422 8.21238 10.8526L6.58778 9.67223C6.2373 9.41759 5.7627 9.41759 5.41221 9.67223L3.78761 10.8526C3.0039 11.422 1.94942 10.6558 2.24878 9.73454L2.86932 7.82471C3.00319 7.41269 2.85653 6.96132 2.50604 6.70667L0.881445 5.52633C0.0977311 4.95693 0.500508 3.71732 1.46923 3.71732H3.47735C3.91057 3.71732 4.29453 3.43836 4.4284 3.02633L5.04894 1.1165Z" fill="#FF68C0"/>
</svg>
