<svg width="20" height="22" viewBox="0 0 20 22" fill="none" xmlns="http://www.w3.org/2000/svg">
<path d="M4 18.6973L1.7 20.9973C1.38333 21.3139 1.02067 21.3846 0.612 21.2093C0.204 21.0346 0 20.7223 0 20.2723V4.69727C0 4.14727 0.196 3.67627 0.588 3.28427C0.979333 2.89293 1.45 2.69727 2 2.69727H12.1C12.0333 3.0306 12 3.36393 12 3.69727C12 4.0306 12.0333 4.36393 12.1 4.69727H2V16.6973H18V8.59726C18.3833 8.51393 18.7417 8.40126 19.075 8.25926C19.4083 8.11793 19.7167 7.9306 20 7.69726V16.6973C20 17.2473 19.8043 17.7183 19.413 18.1103C19.021 18.5016 18.55 18.6973 18 18.6973H4ZM17 6.69726C16.1667 6.69726 15.4583 6.4056 14.875 5.82227C14.2917 5.23893 14 4.5306 14 3.69727C14 2.86393 14.2917 2.1556 14.875 1.57227C15.4583 0.988932 16.1667 0.697266 17 0.697266C17.8333 0.697266 18.5417 0.988932 19.125 1.57227C19.7083 2.1556 20 2.86393 20 3.69727C20 4.5306 19.7083 5.23893 19.125 5.82227C18.5417 6.4056 17.8333 6.69726 17 6.69726Z" fill="#B7B5B9"/>
</svg>
