<svg width="32" height="32" viewBox="0 0 32 32" fill="none" xmlns="http://www.w3.org/2000/svg">
<g clip-path="url(#clip0_5125_940)">
<path d="M29.3333 10.4401C29.8289 10.2648 30.285 9.99364 30.6757 9.64208C31.0665 9.29052 31.3841 8.86545 31.6106 8.39113C31.837 7.9168 31.9678 7.40252 31.9955 6.87765C32.0232 6.35277 31.9473 5.82758 31.772 5.33206C31.5967 4.83654 31.3256 4.38039 30.974 3.98967C30.6225 3.59894 30.1974 3.28128 29.7231 3.05483C29.2487 2.82838 28.7345 2.69757 28.2096 2.66987C27.6847 2.64217 27.1595 2.71812 26.664 2.8934C25.6632 3.24737 24.8441 3.98439 24.3868 4.94233C23.9294 5.90027 23.8714 7.00064 24.2253 8.00139C24.5793 9.00214 25.3163 9.82129 26.2743 10.2786C27.2322 10.736 28.3326 10.794 29.3333 10.4401ZM7 5.33339H22.1493C22.0002 5.98908 21.9623 6.66516 22.0373 7.33339H7C6.41441 7.33342 5.85024 7.55362 5.41948 7.9503C4.98871 8.34698 4.72285 8.89113 4.67467 9.47473L4.66667 9.66673V10.2387L16 16.2041L24.6533 11.6481C25.3973 12.1478 26.2438 12.4744 27.1307 12.6041L16.4653 18.2174C16.3428 18.282 16.2082 18.3205 16.07 18.3304C15.9318 18.3402 15.7931 18.3213 15.6627 18.2747L15.5347 18.2187L4.66667 12.4987V22.3334C4.66669 22.919 4.88689 23.4832 5.28357 23.9139C5.68025 24.3447 6.2244 24.6105 6.808 24.6587L7 24.6667H25C25.5858 24.6667 26.1501 24.4463 26.5809 24.0493C27.0117 23.6524 27.2775 23.1079 27.3253 22.5241L27.3333 22.3334V12.6307C28.0017 12.7028 28.6774 12.6645 29.3333 12.5174V22.3334C29.3334 23.4402 28.9099 24.5052 28.1498 25.3097C27.3896 26.1142 26.3504 26.5974 25.2453 26.6601L25 26.6667H7C5.89315 26.6668 4.82823 26.2433 4.02369 25.4832C3.21916 24.723 2.736 23.6838 2.67333 22.5787L2.66667 22.3334V9.66673C2.66659 8.55988 3.09007 7.49496 3.85023 6.69042C4.61038 5.88588 5.64959 5.40273 6.75467 5.34006L7 5.33339Z" fill="#E9E8EB"/>
<circle cx="28" cy="6.66675" r="4" fill="#FF5959"/>
</g>
<defs>
<clipPath id="clip0_5125_940">
<rect width="32" height="32" fill="white"/>
</clipPath>
</defs>
</svg>
