<svg width="32" height="32" viewBox="0 0 32 32" fill="none" xmlns="http://www.w3.org/2000/svg">
<path d="M16.0013 2.66699C23.3653 2.66699 29.3346 8.63633 29.3346 16.0003C29.3346 23.3643 23.3653 29.3337 16.0013 29.3337C13.8117 29.3369 11.6553 28.7987 9.72398 27.767L2.66798 29.3337L4.23598 22.2803C3.20335 20.3484 2.66469 18.1909 2.66798 16.0003C2.66798 8.63633 8.63732 2.66699 16.0013 2.66699ZM16.0013 9.33366C13.8707 9.33366 12.0013 11.1203 12.0013 13.3337V14.667H10.668V21.3337H21.3347V14.667H20.0013V13.3337C20.0013 12.2728 19.5799 11.2554 18.8297 10.5052C18.0796 9.75509 17.0622 9.33366 16.0013 9.33366ZM18.668 17.3337V18.667H13.3347V17.3337H18.668ZM16.0013 12.0003C16.636 12.0003 17.3347 12.6537 17.3347 13.3337V14.667H14.668V13.3337C14.668 12.6537 15.3173 12.0003 16.0013 12.0003Z" fill="white"/>
</svg>
