<svg width="32" height="32" viewBox="0 0 32 32" fill="none" xmlns="http://www.w3.org/2000/svg">
<path d="M25.6552 24.0238L25.6553 24.0238C27.4242 25.2447 29.8373 23.9788 29.8373 21.829V10.171C29.8373 8.02119 27.4242 6.75531 25.6553 7.97615L25.6552 7.97619L21.7172 10.6949L21.5013 10.8439V11.1063V20.893V21.1554L21.7172 21.3044L25.6552 24.0238ZM3.5348 7.53383C2.65963 8.409 2.16797 9.59598 2.16797 10.8337V21.167C2.16797 22.4047 2.65963 23.5917 3.5348 24.4668C4.40997 25.342 5.59696 25.8337 6.83464 25.8337H16.5013C17.739 25.8337 18.926 25.342 19.8011 24.4668C20.6763 23.5917 21.168 22.4047 21.168 21.167V10.8337C21.168 9.59598 20.6763 8.409 19.8011 7.53383C18.926 6.65866 17.739 6.16699 16.5013 6.16699H6.83464C5.59696 6.16699 4.40997 6.65866 3.5348 7.53383Z" fill="white" stroke="#FF68C0"/>
</svg>
