<svg width="24" height="24" viewBox="0 0 24 24" fill="none" xmlns="http://www.w3.org/2000/svg">
<g clip-path="url(#clip0_3243_14406)">
<path d="M22 7.83011C22.3716 7.69865 22.7138 7.49529 23.0068 7.23162C23.2998 6.96795 23.5381 6.64915 23.7079 6.29341C23.8778 5.93766 23.9759 5.55195 23.9966 5.1583C24.0174 4.76464 23.9605 4.37075 23.829 3.99911C23.6975 3.62747 23.4942 3.28536 23.2305 2.99231C22.9668 2.69926 22.648 2.46102 22.2923 2.29118C21.9366 2.12134 21.5508 2.02324 21.1572 2.00246C20.7635 1.98169 20.3696 2.03865 19.998 2.17011C19.2474 2.43559 18.6331 2.98836 18.2901 3.70681C17.9471 4.42526 17.9035 5.25054 18.169 6.00111C18.4345 6.75167 18.9872 7.36603 19.7057 7.70903C20.4242 8.05204 21.2494 8.09559 22 7.83011ZM5.25 4.00011H16.612C16.5001 4.49187 16.4717 4.99893 16.528 5.50011H5.25C4.81081 5.50012 4.38768 5.66528 4.06461 5.96279C3.74154 6.2603 3.54214 6.66841 3.506 7.10611L3.5 7.25011V7.67911L12 12.1531L18.49 8.73611C19.048 9.11088 19.6829 9.35588 20.348 9.45311L12.349 13.6631C12.2571 13.7116 12.1561 13.7404 12.0525 13.7478C11.9489 13.7552 11.8448 13.741 11.747 13.7061L11.651 13.6641L3.5 9.37411V16.7501C3.50002 17.1893 3.66517 17.6124 3.96268 17.9355C4.26019 18.2586 4.6683 18.458 5.106 18.4941L5.25 18.5001H18.75C19.1893 18.5001 19.6126 18.3348 19.9357 18.0371C20.2588 17.7393 20.4581 17.331 20.494 16.8931L20.5 16.7501V9.47311C21.0013 9.52717 21.508 9.49845 22 9.38811V16.7501C22.0001 17.5802 21.6824 18.3789 21.1123 18.9823C20.5422 19.5857 19.7628 19.9481 18.934 19.9951L18.75 20.0001H5.25C4.41986 20.0002 3.62117 19.6826 3.01777 19.1124C2.41437 18.5423 2.052 17.7629 2.005 16.9341L2 16.7501V7.25011C1.99995 6.41997 2.31755 5.62128 2.88767 5.01788C3.45779 4.41447 4.23719 4.05211 5.066 4.00511L5.25 4.00011Z" fill="#E9E8EB"/>
<circle cx="21" cy="5" r="3" fill="#79E028"/>
</g>
<defs>
<clipPath id="clip0_3243_14406">
<rect width="24" height="24" fill="white"/>
</clipPath>
</defs>
</svg>
