<svg width="32" height="33" viewBox="0 0 32 33" fill="none" xmlns="http://www.w3.org/2000/svg">
<path d="M29.3158 25.4733C29.2543 25.8811 29.0991 26.269 28.8624 26.6066C28.6269 26.9384 28.3149 27.2086 27.9528 27.3942C27.5907 27.5799 27.1893 27.6756 26.7824 27.6733H24.5811C24.4245 27.6728 24.2703 27.6351 24.1312 27.5632C23.9921 27.4914 23.8721 27.3874 23.7811 27.26C23.6891 27.1326 23.6279 26.9856 23.6024 26.8306C23.577 26.6756 23.5879 26.5167 23.6344 26.3666C24.1278 24.7933 24.0211 23.02 19.5531 20.18C19.371 20.0607 19.2316 19.8866 19.1549 19.6829C19.0782 19.4792 19.0682 19.2564 19.1264 19.0466C19.1889 18.84 19.3157 18.6588 19.4884 18.5293C19.6611 18.3998 19.8706 18.3288 20.0864 18.3266C21.9935 18.3526 23.8546 18.9155 25.4563 19.9508C27.0581 20.9861 28.3356 22.4518 29.1424 24.18C29.3064 24.5901 29.366 25.0345 29.3158 25.4733ZM25.9811 10.7666C25.9776 12.3288 25.3553 13.8259 24.2506 14.9304C23.1459 16.0349 21.6486 16.6568 20.0864 16.66C19.9114 16.6568 19.7402 16.6083 19.5895 16.5193C19.4388 16.4303 19.3137 16.3038 19.2264 16.1521C19.1391 16.0003 19.0927 15.8286 19.0915 15.6536C19.0903 15.4785 19.1345 15.3062 19.2198 15.1533C20.0357 13.8479 20.4684 12.3394 20.4684 10.8C20.4684 9.26053 20.0357 7.75206 19.2198 6.44664C19.1152 6.29719 19.0535 6.12198 19.0413 5.93998C19.0291 5.75798 19.067 5.57611 19.1507 5.41407C19.2345 5.25204 19.361 5.11599 19.5165 5.02068C19.672 4.92536 19.8507 4.8744 20.0331 4.87331C20.8137 4.87132 21.5865 5.02876 22.3041 5.33599C23.0217 5.64321 23.6691 6.09375 24.2064 6.65998C25.3032 7.76747 25.9213 9.26131 25.9278 10.82L25.9811 10.7666Z" fill="white"/>
<path d="M22.2329 25.4335C22.2869 26.0862 22.1583 26.7411 21.8617 27.325C21.565 27.9089 21.1119 28.3988 20.5529 28.7401C19.9956 29.0828 19.3529 29.2628 18.6996 29.2601H6.20226C5.54807 29.2631 4.9061 29.083 4.34892 28.7401C3.78867 28.4009 3.33507 27.911 3.0399 27.3263C2.74473 26.7416 2.61988 26.0857 2.67959 25.4335C2.72796 24.7827 2.95904 24.1588 3.34626 23.6335C4.40934 22.219 5.77855 21.0634 7.35142 20.2529C8.92429 19.4425 10.6601 18.9982 12.4289 18.9535C14.2038 18.9887 15.9475 19.4272 17.528 20.2356C19.1084 21.0441 20.4844 22.2015 21.5516 23.6201C21.9396 24.1511 22.1761 24.7783 22.2329 25.4335ZM18.9929 10.2601C18.9894 11.9935 18.3 13.655 17.0753 14.8817C15.8507 16.1084 14.1903 16.8005 12.4569 16.8068C11.4918 16.8044 10.5392 16.5884 9.66751 16.1742C8.7958 15.76 8.02661 15.158 7.41516 14.4113C6.80371 13.6646 6.36517 12.7918 6.13102 11.8555C5.89688 10.9193 5.87294 9.94275 6.06092 8.99614C6.2497 8.04929 6.64599 7.15604 7.22127 6.38067C7.79656 5.60529 8.53655 4.96705 9.388 4.51187C10.2395 4.05669 11.1812 3.79588 12.1455 3.74821C13.1098 3.70053 14.0727 3.86717 14.9649 4.23614C16.1581 4.72879 17.1786 5.56388 17.8977 6.636C18.6167 7.70813 19.002 8.96923 19.0049 10.2601H18.9929Z" fill="white"/>
</svg>
