<svg width="32" height="33" viewBox="0 0 32 33" fill="none" xmlns="http://www.w3.org/2000/svg">
<path d="M14.667 19.1668V29.8335H9.33366C8.27279 29.8335 7.25538 29.412 6.50523 28.6619C5.75509 27.9117 5.33366 26.8943 5.33366 25.8335V20.5001C5.33366 20.1465 5.47413 19.8074 5.72418 19.5573C5.97423 19.3073 6.31337 19.1668 6.66699 19.1668H14.667ZM25.3337 19.1668C25.6873 19.1668 26.0264 19.3073 26.2765 19.5573C26.5265 19.8074 26.667 20.1465 26.667 20.5001V25.8335C26.667 26.8943 26.2456 27.9117 25.4954 28.6619C24.7453 29.412 23.7279 29.8335 22.667 29.8335H17.3337V19.1668H25.3337ZM22.0003 3.1668C22.7877 3.16664 23.5623 3.36569 24.252 3.74542C24.9417 4.12516 25.5242 4.67323 25.9451 5.33862C26.366 6.00401 26.6117 6.76508 26.6594 7.55099C26.7071 8.3369 26.5551 9.12209 26.2177 9.83347H26.667C27.3742 9.83347 28.0525 10.1144 28.5526 10.6145C29.0527 11.1146 29.3337 11.7929 29.3337 12.5001V13.8335C29.3337 14.5407 29.0527 15.219 28.5526 15.7191C28.0525 16.2192 27.3742 16.5001 26.667 16.5001H17.3337V9.83347H14.667V16.5001H5.33366C4.62641 16.5001 3.94814 16.2192 3.44804 15.7191C2.94794 15.219 2.66699 14.5407 2.66699 13.8335V12.5001C2.66699 11.7929 2.94794 11.1146 3.44804 10.6145C3.94814 10.1144 4.62641 9.83347 5.33366 9.83347H5.78299C5.48684 9.20834 5.33336 8.52519 5.33366 7.83347C5.33366 5.25613 7.42299 3.1668 9.97766 3.1668C12.3177 3.1268 14.3937 4.6228 15.819 7.0788L16.0003 7.4028C17.3777 4.8508 19.4137 3.2508 21.7217 3.16946L22.0003 3.1668ZM10.0003 5.83347C9.46989 5.83347 8.96118 6.04418 8.58611 6.41925C8.21104 6.79432 8.00033 7.30303 8.00033 7.83347C8.00033 8.3639 8.21104 8.87261 8.58611 9.24768C8.96118 9.62275 9.46989 9.83347 10.0003 9.83347H14.191C13.203 7.29347 11.5923 5.8068 10.0003 5.83347ZM21.9777 5.83347C20.4043 5.8068 18.7977 7.2948 17.8097 9.83347H22.0003C22.5308 9.83046 23.0383 9.61686 23.4112 9.23967C23.7842 8.86247 23.992 8.35256 23.989 7.82213C23.986 7.2917 23.7724 6.78419 23.3952 6.41124C23.018 6.03829 22.5081 5.83046 21.9777 5.83347Z" fill="white"/>
</svg>
