<svg width="32" height="33" viewBox="0 0 32 33" fill="none" xmlns="http://www.w3.org/2000/svg">
<path fill-rule="evenodd" clip-rule="evenodd" d="M6.66699 7.1665C5.60613 7.1665 4.58871 7.58793 3.83857 8.33808C3.08842 9.08822 2.66699 10.1056 2.66699 11.1665V21.8332C2.66699 22.894 3.08842 23.9115 3.83857 24.6616C4.58871 25.4117 5.60613 25.8332 6.66699 25.8332H20.0003C21.0612 25.8332 22.0786 25.4117 22.8288 24.6616C23.5789 23.9115 24.0003 22.894 24.0003 21.8332V19.7185L27.0577 22.7758C27.2441 22.9622 27.4817 23.0892 27.7403 23.1406C27.9989 23.192 28.2669 23.1656 28.5105 23.0647C28.7541 22.9638 28.9623 22.793 29.1089 22.5738C29.2554 22.3546 29.3336 22.0968 29.3337 21.8332V11.1665C29.3336 10.9028 29.2554 10.6451 29.1089 10.4259C28.9623 10.2067 28.7541 10.0358 28.5105 9.93493C28.2669 9.83404 27.9989 9.80764 27.7403 9.85906C27.4817 9.91048 27.2441 10.0374 27.0577 10.2238L24.0003 13.2812V11.1665C24.0003 10.1056 23.5789 9.08822 22.8288 8.33808C22.0786 7.58793 21.0612 7.1665 20.0003 7.1665H6.66699Z" fill="#D12288"/>
</svg>
