<svg width="33" height="32" viewBox="0 0 33 32" fill="none" xmlns="http://www.w3.org/2000/svg">
<g clip-path="url(#clip0_3312_14580)">
<path d="M7.76203 24.4228C8.1371 24.7978 8.64581 25.0086 9.17624 25.0086C9.70667 25.0086 10.2154 24.7978 10.5905 24.4228L21.791 13.2222L21.791 20.6515C21.8093 21.1694 22.0279 21.66 22.4007 22.0199C22.7736 22.3798 23.2716 22.581 23.7898 22.581C24.308 22.581 24.806 22.3798 25.1788 22.0199C25.5517 21.66 25.7703 21.1694 25.7885 20.6515L25.7885 8.39502C25.7882 7.86501 25.5775 7.35681 25.2027 6.98205C24.828 6.60728 24.3198 6.39659 23.7898 6.39626L11.5333 6.39626C11.2648 6.38679 10.9973 6.43147 10.7465 6.52765C10.4957 6.62383 10.2669 6.76954 10.0737 6.95607C9.88043 7.14261 9.72674 7.36616 9.62177 7.61338C9.51681 7.8606 9.46271 8.12643 9.46271 8.39501C9.46271 8.6636 9.51681 8.92943 9.62177 9.17665C9.72674 9.42387 9.88043 9.64742 10.0737 9.83396C10.2669 10.0205 10.4957 10.1662 10.7465 10.2624C10.9973 10.3586 11.2648 10.4032 11.5333 10.3938L18.9626 10.3938L7.76203 21.5943C6.98138 22.375 6.98138 23.6421 7.76203 24.4228Z" fill="white"/>
</g>
<defs>
<clipPath id="clip0_3312_14580">
<rect width="32" height="32" fill="white" transform="translate(0.5)"/>
</clipPath>
</defs>
</svg>
