<svg width="32" height="33" viewBox="0 0 32 33" fill="none" xmlns="http://www.w3.org/2000/svg">
<path fill-rule="evenodd" clip-rule="evenodd" d="M16.0252 4.5C13.0138 4.5 10.2705 5.49467 8.64717 6.30733C8.50051 6.38067 8.36362 6.45222 8.23651 6.522C7.98451 6.65933 7.76984 6.78733 7.59917 6.9L9.44584 9.61867L10.3152 9.96467C13.7125 11.6787 18.2685 11.6787 21.6665 9.96467L22.6532 9.45267L24.3992 6.9C24.0371 6.66474 23.6611 6.45168 23.2732 6.262C21.6578 5.458 18.9798 4.5 16.0258 4.5M11.7312 7.57733C11.0774 7.4543 10.4316 7.29223 9.79717 7.092C11.3178 6.41667 13.5838 5.7 16.0258 5.7C17.7172 5.7 19.3165 6.044 20.6392 6.48C19.0892 6.698 17.4352 7.068 15.8592 7.52333C14.6192 7.882 13.1698 7.84333 11.7312 7.57733ZM22.3712 10.9533L22.2072 11.036C18.4698 12.9213 13.5125 12.9213 9.77517 11.036L9.61984 10.9573C4.00451 17.118 -0.282159 28.498 16.0252 28.498C32.3325 28.498 27.9418 16.9067 22.3712 10.9533ZM15.3325 16.5C14.9789 16.5 14.6397 16.6405 14.3897 16.8905C14.1397 17.1406 13.9992 17.4797 13.9992 17.8333C13.9992 18.187 14.1397 18.5261 14.3897 18.7761C14.6397 19.0262 14.9789 19.1667 15.3325 19.1667V16.5ZM16.6658 15.1667V14.5H15.3325V15.1667C14.6253 15.1667 13.947 15.4476 13.4469 15.9477C12.9468 16.4478 12.6658 17.1261 12.6658 17.8333C12.6658 18.5406 12.9468 19.2189 13.4469 19.719C13.947 20.219 14.6253 20.5 15.3325 20.5V23.1667C14.7525 23.1667 14.2585 22.7967 14.0745 22.278C14.0472 22.1931 14.0032 22.1146 13.945 22.0471C13.8868 21.9795 13.8157 21.9244 13.7358 21.8848C13.6559 21.8452 13.5689 21.8221 13.48 21.8167C13.391 21.8113 13.3018 21.8239 13.2178 21.8536C13.1337 21.8833 13.0565 21.9295 12.9906 21.9896C12.9248 22.0497 12.8716 22.1223 12.8343 22.2033C12.7971 22.2843 12.7764 22.3719 12.7735 22.461C12.7707 22.5501 12.7858 22.6388 12.8178 22.722C13.0017 23.242 13.3422 23.6923 13.7926 24.0107C14.2429 24.3291 14.7809 24.5001 15.3325 24.5V25.1667H16.6658V24.5C17.3731 24.5 18.0514 24.219 18.5515 23.719C19.0516 23.2189 19.3325 22.5406 19.3325 21.8333C19.3325 21.1261 19.0516 20.4478 18.5515 19.9477C18.0514 19.4476 17.3731 19.1667 16.6658 19.1667V16.5C17.2458 16.5 17.7398 16.87 17.9238 17.3887C17.9511 17.4735 17.9952 17.552 18.0534 17.6196C18.1115 17.6871 18.1827 17.7423 18.2625 17.7819C18.3424 17.8215 18.4294 17.8446 18.5184 17.85C18.6074 17.8553 18.6965 17.8428 18.7806 17.8131C18.8646 17.7834 18.9419 17.7371 19.0077 17.6771C19.0736 17.617 19.1267 17.5443 19.164 17.4634C19.2013 17.3824 19.222 17.2948 19.2248 17.2057C19.2276 17.1166 19.2126 17.0278 19.1805 16.9447C18.9967 16.4246 18.6562 15.9744 18.2058 15.656C17.7554 15.3375 17.2174 15.1666 16.6658 15.1667ZM16.6658 20.5V23.1667C17.0195 23.1667 17.3586 23.0262 17.6087 22.7761C17.8587 22.5261 17.9992 22.187 17.9992 21.8333C17.9992 21.4797 17.8587 21.1406 17.6087 20.8905C17.3586 20.6405 17.0195 20.5 16.6658 20.5Z" fill="white"/>
</svg>
