<svg width="33" height="33" viewBox="0 0 33 33" fill="none" xmlns="http://www.w3.org/2000/svg">
<path fill-rule="evenodd" clip-rule="evenodd" d="M16.5252 4.5C13.5138 4.5 10.7705 5.49467 9.14717 6.30733C9.00051 6.38067 8.86362 6.45222 8.73651 6.522C8.48451 6.65933 8.26984 6.78733 8.09917 6.9L9.94584 9.61867L10.8152 9.96467C14.2125 11.6787 18.7685 11.6787 22.1665 9.96467L23.1532 9.45267L24.8992 6.9C24.5371 6.66474 24.1611 6.45168 23.7732 6.262C22.1578 5.458 19.4798 4.5 16.5258 4.5M12.2312 7.57733C11.5774 7.4543 10.9316 7.29223 10.2972 7.092C11.8178 6.41667 14.0838 5.7 16.5258 5.7C18.2172 5.7 19.8165 6.044 21.1392 6.48C19.5892 6.698 17.9352 7.068 16.3592 7.52333C15.1192 7.882 13.6698 7.84333 12.2312 7.57733ZM22.8712 10.9533L22.7072 11.036C18.9698 12.9213 14.0125 12.9213 10.2752 11.036L10.1198 10.9573C4.50451 17.118 0.217841 28.498 16.5252 28.498C32.8325 28.498 28.4418 16.9067 22.8712 10.9533ZM15.8325 16.5C15.4789 16.5 15.1397 16.6405 14.8897 16.8905C14.6397 17.1406 14.4992 17.4797 14.4992 17.8333C14.4992 18.187 14.6397 18.5261 14.8897 18.7761C15.1397 19.0262 15.4789 19.1667 15.8325 19.1667V16.5ZM17.1658 15.1667V14.5H15.8325V15.1667C15.1253 15.1667 14.447 15.4476 13.9469 15.9477C13.4468 16.4478 13.1658 17.1261 13.1658 17.8333C13.1658 18.5406 13.4468 19.2189 13.9469 19.719C14.447 20.219 15.1253 20.5 15.8325 20.5V23.1667C15.2525 23.1667 14.7585 22.7967 14.5745 22.278C14.5472 22.1931 14.5032 22.1146 14.445 22.0471C14.3868 21.9795 14.3157 21.9244 14.2358 21.8848C14.1559 21.8452 14.0689 21.8221 13.98 21.8167C13.891 21.8113 13.8018 21.8239 13.7178 21.8536C13.6337 21.8833 13.5565 21.9295 13.4906 21.9896C13.4248 22.0497 13.3716 22.1223 13.3343 22.2033C13.2971 22.2843 13.2764 22.3719 13.2735 22.461C13.2707 22.5501 13.2858 22.6388 13.3178 22.722C13.5017 23.242 13.8422 23.6923 14.2926 24.0107C14.7429 24.3291 15.2809 24.5001 15.8325 24.5V25.1667H17.1658V24.5C17.8731 24.5 18.5514 24.219 19.0515 23.719C19.5516 23.2189 19.8325 22.5406 19.8325 21.8333C19.8325 21.1261 19.5516 20.4478 19.0515 19.9477C18.5514 19.4476 17.8731 19.1667 17.1658 19.1667V16.5C17.7458 16.5 18.2398 16.87 18.4238 17.3887C18.4511 17.4735 18.4952 17.552 18.5534 17.6196C18.6115 17.6871 18.6827 17.7423 18.7625 17.7819C18.8424 17.8215 18.9294 17.8446 19.0184 17.85C19.1074 17.8553 19.1965 17.8428 19.2806 17.8131C19.3646 17.7834 19.4419 17.7371 19.5077 17.6771C19.5736 17.617 19.6267 17.5443 19.664 17.4634C19.7013 17.3824 19.722 17.2948 19.7248 17.2057C19.7276 17.1166 19.7126 17.0278 19.6805 16.9447C19.4967 16.4246 19.1562 15.9744 18.7058 15.656C18.2554 15.3375 17.7174 15.1666 17.1658 15.1667ZM17.1658 20.5V23.1667C17.5195 23.1667 17.8586 23.0262 18.1087 22.7761C18.3587 22.5261 18.4992 22.187 18.4992 21.8333C18.4992 21.4797 18.3587 21.1406 18.1087 20.8905C17.8586 20.6405 17.5195 20.5 17.1658 20.5Z" fill="#D12288"/>
</svg>
