<svg width="32" height="32" viewBox="0 0 32 32" fill="none" xmlns="http://www.w3.org/2000/svg">
<path d="M16 32C7.1648 32 0 24.8352 0 16C0 7.1648 7.1648 0 16 0C24.8352 0 32 7.1648 32 16C32 24.8352 24.8352 32 16 32Z" fill="#3B579D"/>
<path d="M20.16 32.0007V19.6071H24.32L24.944 14.7783H20.16V11.6935C20.16 10.2951 20.5472 9.34154 22.5536 9.34154H25.1104V5.02474C24.6688 4.96714 23.1488 4.83594 21.3824 4.83594C17.696 4.83594 15.1712 7.08554 15.1712 11.2199V14.7815H11.0016V19.6103H15.1712V32.0007H20.16Z" fill="white"/>
</svg>
