<svg width="33" height="33" viewBox="0 0 33 33" fill="none" xmlns="http://www.w3.org/2000/svg">
<path d="M22.3127 19.1667C22.4193 18.2867 22.4993 17.4067 22.4993 16.5001C22.4993 15.5934 22.4193 14.7134 22.3127 13.8334H26.8193C27.0327 14.6867 27.166 15.5801 27.166 16.5001C27.166 17.4201 27.0327 18.3134 26.8193 19.1667M19.9527 26.5801C20.7527 25.1001 21.366 23.5001 21.7927 21.8334H25.726C24.4342 24.0578 22.3848 25.7427 19.9527 26.5801ZM19.6194 19.1667H13.3793C13.246 18.2867 13.166 17.4067 13.166 16.5001C13.166 15.5934 13.246 14.7001 13.3793 13.8334H19.6194C19.7393 14.7001 19.8327 15.5934 19.8327 16.5001C19.8327 17.4067 19.7393 18.2867 19.6194 19.1667ZM16.4993 27.1134C15.3927 25.5134 14.4993 23.7401 13.9527 21.8334H19.046C18.4993 23.7401 17.606 25.5134 16.4993 27.1134ZM11.166 11.1667H7.27268C8.55087 8.93613 10.5989 7.2484 13.0327 6.42008C12.2327 7.90008 11.6327 9.50008 11.166 11.1667ZM7.27268 21.8334H11.166C11.6327 23.5001 12.2327 25.1001 13.0327 26.5801C10.6037 25.7432 8.5584 24.0577 7.27268 21.8334ZM6.17935 19.1667C5.96602 18.3134 5.83268 17.4201 5.83268 16.5001C5.83268 15.5801 5.96602 14.6867 6.17935 13.8334H10.686C10.5793 14.7134 10.4993 15.5934 10.4993 16.5001C10.4993 17.4067 10.5793 18.2867 10.686 19.1667M16.4993 5.87341C17.606 7.47342 18.4993 9.26008 19.046 11.1667H13.9527C14.4993 9.26008 15.3927 7.47342 16.4993 5.87341ZM25.726 11.1667H21.7927C21.3747 9.51556 20.7568 7.92156 19.9527 6.42008C22.406 7.26008 24.446 8.95341 25.726 11.1667ZM16.4993 3.16675C9.12602 3.16675 3.16602 9.16675 3.16602 16.5001C3.16602 20.0363 4.57077 23.4277 7.07126 25.9282C8.30937 27.1663 9.77923 28.1484 11.3969 28.8185C13.0146 29.4885 14.7484 29.8334 16.4993 29.8334C20.0356 29.8334 23.427 28.4287 25.9274 25.9282C28.4279 23.4277 29.8327 20.0363 29.8327 16.5001C29.8327 14.7491 29.4878 13.0153 28.8177 11.3976C28.1477 9.77996 27.1656 8.31011 25.9274 7.07199C24.6893 5.83388 23.2195 4.85175 21.6018 4.18169C19.9841 3.51162 18.2503 3.16675 16.4993 3.16675Z" fill="#D12288"/>
</svg>
