<svg width="32" height="33" viewBox="0 0 32 33" fill="none" xmlns="http://www.w3.org/2000/svg">
<path d="M21.8127 19.1667C21.9193 18.2867 21.9993 17.4067 21.9993 16.5001C21.9993 15.5934 21.9193 14.7134 21.8127 13.8334H26.3193C26.5327 14.6867 26.666 15.5801 26.666 16.5001C26.666 17.4201 26.5327 18.3134 26.3193 19.1667M19.4527 26.5801C20.2527 25.1001 20.866 23.5001 21.2927 21.8334H25.226C23.9342 24.0578 21.8848 25.7427 19.4527 26.5801ZM19.1194 19.1667H12.8793C12.746 18.2867 12.666 17.4067 12.666 16.5001C12.666 15.5934 12.746 14.7001 12.8793 13.8334H19.1194C19.2393 14.7001 19.3327 15.5934 19.3327 16.5001C19.3327 17.4067 19.2393 18.2867 19.1194 19.1667ZM15.9993 27.1134C14.8927 25.5134 13.9993 23.7401 13.4527 21.8334H18.546C17.9993 23.7401 17.106 25.5134 15.9993 27.1134ZM10.666 11.1667H6.77268C8.05087 8.93613 10.0989 7.2484 12.5327 6.42008C11.7327 7.90008 11.1327 9.50008 10.666 11.1667ZM6.77268 21.8334H10.666C11.1327 23.5001 11.7327 25.1001 12.5327 26.5801C10.1037 25.7432 8.0584 24.0577 6.77268 21.8334ZM5.67935 19.1667C5.46602 18.3134 5.33268 17.4201 5.33268 16.5001C5.33268 15.5801 5.46602 14.6867 5.67935 13.8334H10.186C10.0793 14.7134 9.99935 15.5934 9.99935 16.5001C9.99935 17.4067 10.0793 18.2867 10.186 19.1667M15.9993 5.87341C17.106 7.47342 17.9993 9.26008 18.546 11.1667H13.4527C13.9993 9.26008 14.8927 7.47342 15.9993 5.87341ZM25.226 11.1667H21.2927C20.8747 9.51556 20.2568 7.92156 19.4527 6.42008C21.906 7.26008 23.946 8.95341 25.226 11.1667ZM15.9993 3.16675C8.62602 3.16675 2.66602 9.16675 2.66602 16.5001C2.66602 20.0363 4.07077 23.4277 6.57126 25.9282C7.80937 27.1663 9.27923 28.1484 10.8969 28.8185C12.5146 29.4885 14.2484 29.8334 15.9993 29.8334C19.5356 29.8334 22.927 28.4287 25.4274 25.9282C27.9279 23.4277 29.3327 20.0363 29.3327 16.5001C29.3327 14.7491 28.9878 13.0153 28.3177 11.3976C27.6477 9.77996 26.6656 8.31011 25.4274 7.07199C24.1893 5.83388 22.7195 4.85175 21.1018 4.18169C19.4841 3.51162 17.7503 3.16675 15.9993 3.16675Z" fill="white"/>
</svg>
