<svg width="33" height="32" viewBox="0 0 33 32" fill="none" xmlns="http://www.w3.org/2000/svg">
<path d="M3.69922 11.2004C3.69922 9.92735 4.20493 8.70645 5.10511 7.80628C6.00528 6.9061 7.22618 6.40039 8.49922 6.40039H16.4992C17.7723 6.40039 18.9932 6.9061 19.8933 7.80628C20.7935 8.70645 21.2992 9.92735 21.2992 11.2004V20.8004C21.2992 22.0734 20.7935 23.2943 19.8933 24.1945C18.9932 25.0947 17.7723 25.6004 16.4992 25.6004H8.49922C7.22618 25.6004 6.00528 25.0947 5.10511 24.1945C4.20493 23.2943 3.69922 22.0734 3.69922 20.8004V11.2004ZM26.1584 23.642L22.8992 21.3908V10.6084L26.1584 8.35879C26.4585 8.15169 26.8095 8.03056 27.1735 8.00851C27.5374 7.98646 27.9005 8.06432 28.2234 8.23368C28.5463 8.40304 28.8167 8.65745 29.0055 8.9694C29.1943 9.28135 29.2942 9.63897 29.2944 10.0036V21.9956C29.2945 22.3603 29.1948 22.7182 29.0061 23.0304C28.8175 23.3425 28.547 23.5972 28.2241 23.7667C27.9011 23.9363 27.538 24.0143 27.1739 23.9923C26.8098 23.9703 26.4586 23.8492 26.1584 23.642Z" fill="white"/>
</svg>
