<svg width="33" height="33" viewBox="0 0 33 33" fill="none" xmlns="http://www.w3.org/2000/svg">
<path d="M29.8327 5.75334L16.4993 1.08667L3.16602 5.75334V16.5C3.16602 22.0027 6.54468 25.8493 9.69402 28.2373C11.5955 29.6646 13.681 30.8284 15.894 31.6973C16.0451 31.7542 16.1971 31.8084 16.35 31.86L16.4993 31.9133L16.6514 31.86C16.9429 31.7587 17.2319 31.6503 17.518 31.5347C19.579 30.6855 21.5235 29.5775 23.3047 28.2373C26.4553 25.8493 29.8327 22.0027 29.8327 16.5V5.75334ZM15.1673 21.0533L9.51268 15.396L11.398 13.5093L15.1687 17.2813L22.7113 9.73867L24.598 11.624L15.1673 21.0533Z" fill="#D12288"/>
</svg>
