<svg width="32" height="33" viewBox="0 0 32 33" fill="none" xmlns="http://www.w3.org/2000/svg">
<path d="M29.3327 5.75334L15.9993 1.08667L2.66602 5.75334V16.5C2.66602 22.0027 6.04468 25.8493 9.19402 28.2373C11.0955 29.6646 13.181 30.8284 15.394 31.6973C15.5451 31.7542 15.6971 31.8084 15.85 31.86L15.9993 31.9133L16.1514 31.86C16.4429 31.7587 16.7319 31.6503 17.018 31.5347C19.079 30.6855 21.0235 29.5775 22.8047 28.2373C25.9553 25.8493 29.3327 22.0027 29.3327 16.5V5.75334ZM14.6673 21.0533L9.01268 15.396L10.898 13.5093L14.6687 17.2813L22.2113 9.73867L24.098 11.624L14.6673 21.0533Z" fill="white"/>
</svg>
