<svg width="33" height="33" viewBox="0 0 33 33" fill="none" xmlns="http://www.w3.org/2000/svg">
<path d="M16.5008 23.7001C15.6963 23.7003 14.9213 23.3974 14.33 22.8518C13.7388 22.3063 13.3747 21.558 13.3104 20.7561C11.1763 20.0007 9.37766 18.5156 8.23202 16.5631C7.08638 14.6105 6.66738 12.316 7.04898 10.0845C7.43059 7.85307 8.58826 5.82817 10.3176 4.36727C12.047 2.90637 14.2369 2.10339 16.5008 2.1001C18.9086 2.09975 21.2287 3.00424 23.0009 4.63422C24.7731 6.2642 25.8681 8.50064 26.0688 10.9001C26.0755 11.0042 26.0604 11.1085 26.0246 11.2065C25.9888 11.3044 25.933 11.3939 25.8608 11.4691C25.7886 11.5443 25.7015 11.6037 25.6051 11.6435C25.5087 11.6833 25.405 11.7025 25.3008 11.7001C25.0865 11.6947 24.8818 11.6099 24.7266 11.462C24.5713 11.3142 24.4766 11.1139 24.4608 10.9001C24.3183 9.48543 23.8013 8.13431 22.9632 6.98581C22.125 5.83732 20.9959 4.93296 19.692 4.36584C18.3882 3.79871 16.9568 3.58932 15.5452 3.75921C14.1335 3.9291 12.7927 4.47214 11.6606 5.33242C10.5286 6.1927 9.64629 7.33913 9.10454 8.6537C8.56279 9.96827 8.38118 11.4035 8.57839 12.8115C8.77561 14.2196 9.34453 15.5497 10.2266 16.6649C11.1086 17.78 12.272 18.6399 13.5968 19.1561C13.8378 18.6352 14.2146 18.1888 14.6875 17.8635C15.1604 17.5383 15.712 17.3462 16.2847 17.3074C16.8573 17.2686 17.4298 17.3846 17.9423 17.6431C18.4547 17.9017 18.8882 18.2933 19.1972 18.7769C19.5063 19.2605 19.6796 19.8184 19.699 20.392C19.7184 20.9656 19.5832 21.5339 19.3075 22.0373C19.0318 22.5407 18.6257 22.9607 18.1319 23.2532C17.6381 23.5458 17.0747 23.7001 16.5008 23.7001ZM8.51518 19.7001H8.66078C9.60535 20.6267 10.7066 21.3786 11.9136 21.9209C12.2683 23.0912 13.0563 24.082 14.1167 24.691C15.1772 25.3 16.4301 25.4814 17.6197 25.198C18.8092 24.9145 19.8458 24.1878 20.5177 23.166C21.1897 22.1443 21.4463 20.9046 21.2352 19.7001H24.5008C25.3495 19.7001 26.1634 20.0372 26.7635 20.6374C27.3636 21.2375 27.7008 22.0514 27.7008 22.9001C27.7008 25.6057 26.368 27.6457 24.2848 28.9753C22.2336 30.2825 19.4688 30.9001 16.5008 30.9001C13.5328 30.9001 10.768 30.2825 8.71678 28.9753C6.63358 27.6473 5.30078 25.6041 5.30078 22.9001C5.30078 21.1193 6.74558 19.7001 8.51518 19.7001ZM22.9008 11.7001C22.9011 12.7827 22.6268 13.8477 22.1036 14.7955C21.5803 15.7433 20.8251 16.5428 19.9088 17.1193C19.4625 16.6695 18.9316 16.3125 18.3467 16.069C17.7618 15.8254 17.1344 15.7 16.5008 15.7001C15.8672 15.7 15.2398 15.8254 14.6549 16.069C14.07 16.3125 13.5391 16.6695 13.0928 17.1193C11.8775 16.355 10.9544 15.2043 10.472 13.8521C10.2259 13.1613 10.1003 12.4334 10.1008 11.7001C10.1008 10.0027 10.7751 8.37485 11.9753 7.17461C13.1755 5.97438 14.8034 5.3001 16.5008 5.3001C18.1982 5.3001 19.826 5.97438 21.0263 7.17461C22.2265 8.37485 22.9008 10.0027 22.9008 11.7001Z" fill="#D12288"/>
</svg>
