<svg width="32" height="33" viewBox="0 0 32 33" fill="none" xmlns="http://www.w3.org/2000/svg">
<path d="M16.0008 23.7001C15.1963 23.7003 14.4213 23.3974 13.83 22.8518C13.2388 22.3063 12.8747 21.558 12.8104 20.7561C10.6763 20.0007 8.87766 18.5156 7.73202 16.5631C6.58638 14.6105 6.16738 12.316 6.54898 10.0845C6.93059 7.85307 8.08826 5.82817 9.81765 4.36727C11.547 2.90637 13.7369 2.10339 16.0008 2.1001C18.4086 2.09975 20.7287 3.00424 22.5009 4.63422C24.2731 6.2642 25.3681 8.50064 25.5688 10.9001C25.5755 11.0042 25.5604 11.1085 25.5246 11.2065C25.4888 11.3044 25.433 11.3939 25.3608 11.4691C25.2886 11.5443 25.2015 11.6037 25.1051 11.6435C25.0087 11.6833 24.905 11.7025 24.8008 11.7001C24.5865 11.6947 24.3818 11.6099 24.2266 11.462C24.0713 11.3142 23.9766 11.1139 23.9608 10.9001C23.8183 9.48543 23.3013 8.13431 22.4632 6.98581C21.625 5.83732 20.4959 4.93296 19.192 4.36584C17.8882 3.79871 16.4568 3.58932 15.0452 3.75921C13.6335 3.9291 12.2927 4.47214 11.1606 5.33242C10.0286 6.1927 9.14629 7.33913 8.60454 8.6537C8.06279 9.96827 7.88118 11.4035 8.07839 12.8115C8.27561 14.2196 8.84453 15.5497 9.72659 16.6649C10.6086 17.78 11.772 18.6399 13.0968 19.1561C13.3378 18.6352 13.7146 18.1888 14.1875 17.8635C14.6604 17.5383 15.212 17.3462 15.7847 17.3074C16.3573 17.2686 16.9298 17.3846 17.4423 17.6431C17.9547 17.9017 18.3882 18.2933 18.6972 18.7769C19.0063 19.2605 19.1796 19.8184 19.199 20.392C19.2184 20.9656 19.0832 21.5339 18.8075 22.0373C18.5318 22.5407 18.1257 22.9607 17.6319 23.2532C17.1381 23.5458 16.5747 23.7001 16.0008 23.7001ZM8.01518 19.7001H8.16078C9.10535 20.6267 10.2066 21.3786 11.4136 21.9209C11.7683 23.0912 12.5563 24.082 13.6167 24.691C14.6772 25.3 15.9301 25.4814 17.1197 25.198C18.3092 24.9145 19.3458 24.1878 20.0177 23.166C20.6897 22.1443 20.9463 20.9046 20.7352 19.7001H24.0008C24.8495 19.7001 25.6634 20.0372 26.2635 20.6374C26.8636 21.2375 27.2008 22.0514 27.2008 22.9001C27.2008 25.6057 25.868 27.6457 23.7848 28.9753C21.7336 30.2825 18.9688 30.9001 16.0008 30.9001C13.0328 30.9001 10.268 30.2825 8.21678 28.9753C6.13358 27.6473 4.80078 25.6041 4.80078 22.9001C4.80078 21.1193 6.24558 19.7001 8.01518 19.7001ZM22.4008 11.7001C22.4011 12.7827 22.1268 13.8477 21.6036 14.7955C21.0803 15.7433 20.3251 16.5428 19.4088 17.1193C18.9625 16.6695 18.4316 16.3125 17.8467 16.069C17.2618 15.8254 16.6344 15.7 16.0008 15.7001C15.3672 15.7 14.7398 15.8254 14.1549 16.069C13.57 16.3125 13.0391 16.6695 12.5928 17.1193C11.3775 16.355 10.4544 15.2043 9.97198 13.8521C9.72587 13.1613 9.60031 12.4334 9.60078 11.7001C9.60078 10.0027 10.2751 8.37485 11.4753 7.17461C12.6755 5.97438 14.3034 5.3001 16.0008 5.3001C17.6982 5.3001 19.326 5.97438 20.5263 7.17461C21.7265 8.37485 22.4008 10.0027 22.4008 11.7001Z" fill="white"/>
</svg>
