<svg width="8" height="9" viewBox="0 0 8 9" fill="none" xmlns="http://www.w3.org/2000/svg">
<path d="M7.64052 4.01561C7.60569 4.05047 7.56433 4.07813 7.51881 4.097C7.47329 4.11588 7.42449 4.12559 7.37521 4.12559C7.32593 4.12559 7.27713 4.11588 7.23161 4.097C7.18608 4.07813 7.14472 4.05047 7.1099 4.01561L4.37521 1.28045V8.62529C4.37521 8.72475 4.3357 8.82013 4.26537 8.89046C4.19505 8.96079 4.09966 9.00029 4.00021 9.00029C3.90075 9.00029 3.80537 8.96079 3.73504 8.89046C3.66472 8.82013 3.62521 8.72475 3.62521 8.62529V1.28045L0.890521 4.01561C0.820156 4.08597 0.72472 4.1255 0.625208 4.1255C0.525697 4.1255 0.430261 4.08597 0.359896 4.01561C0.289531 3.94524 0.25 3.84981 0.25 3.7503C0.25 3.65078 0.289531 3.55535 0.359896 3.48498L3.7349 0.109982C3.76972 0.0751163 3.81108 0.0474567 3.85661 0.0285851C3.90213 0.0097135 3.95093 0 4.00021 0C4.04949 0 4.09829 0.0097135 4.14381 0.0285851C4.18934 0.0474567 4.23069 0.0751163 4.26552 0.109982L7.64052 3.48498C7.67539 3.51981 7.70305 3.56117 7.72192 3.60669C7.74079 3.65222 7.7505 3.70101 7.7505 3.7503C7.7505 3.79958 7.74079 3.84837 7.72192 3.8939C7.70305 3.93942 7.67539 3.98078 7.64052 4.01561Z" fill="black"/>
</svg>
