<svg width="13" height="13" viewBox="0 0 13 13" fill="none" xmlns="http://www.w3.org/2000/svg">
<g clip-path="url(#clip0_3897_9112)">
<g clip-path="url(#clip1_3897_9112)">
<path d="M5.28875 2.0615C5.58786 1.14096 6.89017 1.14096 7.18928 2.0615L7.8093 3.96975C7.94306 4.38142 8.3267 4.66015 8.75956 4.66015H10.766C11.7339 4.66015 12.1364 5.89873 11.3533 6.46765L9.73005 7.64701C9.37986 7.90145 9.23333 8.35244 9.36708 8.76412L9.98711 10.6724C10.2862 11.5928 9.23262 12.3584 8.44955 11.7895L6.8263 10.6101C6.47612 10.3557 6.00191 10.3557 5.65171 10.6101L4.02847 11.7895C3.24541 12.3584 2.19181 11.5928 2.49092 10.6724L3.11094 8.76412C3.2447 8.35244 3.09816 7.90145 2.74797 7.64701L1.12472 6.46765C0.341663 5.89873 0.744104 4.66015 1.71202 4.66015H3.71847C4.15132 4.66015 4.53496 4.38142 4.66872 3.96974L5.28875 2.0615Z" fill="white"/>
</g>
</g>
<defs>
<clipPath id="clip0_3897_9112">
<rect width="11.99" height="11.99" fill="white" transform="translate(0.242188 0.945312)"/>
</clipPath>
<clipPath id="clip1_3897_9112">
<rect width="11.99" height="11.99" fill="white" transform="translate(0.242188 0.945312)"/>
</clipPath>
</defs>
</svg>
