<svg width="20" height="20" viewBox="0 0 20 20" fill="none" xmlns="http://www.w3.org/2000/svg">
<path d="M6.85113 12.6993H13.1526M6.85113 8.19827H10.0019M18.968 9.07147C19.0156 9.8269 19.0156 10.5846 18.968 11.34C18.7213 15.1596 15.7218 18.2014 11.9553 18.4517C10.6544 18.5374 9.3493 18.5374 8.04841 18.4517C7.58931 18.4203 7.13795 18.3174 6.71069 18.1465C6.24979 17.9575 6.01933 17.862 5.9014 17.8764C5.78438 17.8908 5.61424 18.016 5.27486 18.2671C4.67532 18.7082 3.92004 19.026 2.79928 18.999C2.23305 18.9855 1.95038 18.9783 1.82345 18.7622C1.69652 18.5462 1.85406 18.2473 2.17003 17.6487C2.60843 16.8187 2.8857 15.8681 2.4653 15.1074C1.74063 14.019 1.12579 12.7308 1.03576 11.3409C0.988078 10.5855 0.988078 9.8278 1.03576 9.07237C1.28242 5.25278 4.28193 2.21096 8.04841 1.9607C8.54262 1.9274 8.59573 1.90759 9.10165 1.90039" stroke="white" stroke-width="2" stroke-linecap="round" stroke-linejoin="round"/>
<path d="M12.7159 1.34823C13.6819 0.772097 14.5245 1.00435 15.0304 1.37344C15.2374 1.52557 15.3419 1.60119 15.4031 1.60119C15.4643 1.60119 15.5678 1.52557 15.7758 1.37344C16.2817 1.00435 17.1243 0.772097 18.0902 1.34823C19.3577 2.10441 19.644 4.59709 16.7219 6.69998C16.1637 7.10058 15.8865 7.30133 15.4031 7.30133C14.9197 7.30133 14.6415 7.10058 14.0852 6.69998C11.1622 4.59709 11.4484 2.10351 12.7159 1.34823Z" stroke="#FF5959" stroke-width="1.5" stroke-linecap="round" stroke-linejoin="round"/>
</svg>
