<svg width="17" height="18" viewBox="0 0 17 18" fill="none" xmlns="http://www.w3.org/2000/svg">
<path d="M14.0776 9.53971V7.9569H12.8535V9.7931C12.8535 9.95542 12.918 10.1111 13.0328 10.2258L14.6897 11.8827V12.8534H1.22414V11.8827L2.88101 10.2258C2.9958 10.1111 3.06031 9.95542 3.06035 9.7931V7.34483C3.05875 6.4848 3.28412 5.63957 3.71371 4.89451C4.14329 4.14945 4.76188 3.53094 5.50699 3.10145C6.2521 2.67196 7.09735 2.44668 7.95738 2.44839C8.81742 2.45009 9.66177 2.67871 10.4052 3.11115V1.74195C9.82253 1.48401 9.20285 1.31959 8.56897 1.25474V0H7.34483V1.25474C5.83582 1.40833 4.43735 2.11599 3.41986 3.24089C2.40236 4.36579 1.83811 5.82802 1.83621 7.34483V9.53971L0.179336 11.1966C0.0645431 11.3113 3.4666e-05 11.467 0 11.6293V13.4655C0 13.6278 0.0644856 13.7835 0.179271 13.8983C0.294056 14.0131 0.449738 14.0776 0.612069 14.0776H4.89655V14.6897C4.89655 15.5013 5.21898 16.2797 5.79291 16.8536C6.36683 17.4276 7.14524 17.75 7.9569 17.75C8.76855 17.75 9.54696 17.4276 10.1209 16.8536C10.6948 16.2797 11.0172 15.5013 11.0172 14.6897V14.0776H15.3017C15.4641 14.0776 15.6197 14.0131 15.7345 13.8983C15.8493 13.7835 15.9138 13.6278 15.9138 13.4655V11.6293C15.9138 11.467 15.8493 11.3113 15.7345 11.1966L14.0776 9.53971ZM9.79311 14.6897C9.79311 15.1766 9.59965 15.6437 9.25529 15.988C8.91094 16.3324 8.44389 16.5259 7.9569 16.5259C7.46991 16.5259 7.00286 16.3324 6.6585 15.988C6.31415 15.6437 6.12069 15.1766 6.12069 14.6897V14.0776H9.79311V14.6897Z" fill="white"/>
<path d="M14.0772 6.73249C15.4293 6.73249 16.5255 5.63636 16.5255 4.28421C16.5255 2.93207 15.4293 1.83594 14.0772 1.83594C12.725 1.83594 11.6289 2.93207 11.6289 4.28421C11.6289 5.63636 12.725 6.73249 14.0772 6.73249Z" fill="#FF5959"/>
</svg>
