<svg width="40" height="40" viewBox="0 0 40 40" fill="none" xmlns="http://www.w3.org/2000/svg">
<rect x="0.5" y="0.5" width="39" height="39" rx="19.5" stroke="#D12288"/>
<path d="M13.7495 15C13.5506 15 13.3598 15.079 13.2192 15.2197C13.0785 15.3603 12.9995 15.5511 12.9995 15.75C12.9995 15.9489 13.0785 16.1397 13.2192 16.2803C13.3598 16.421 13.5506 16.5 13.7495 16.5H17.7495C17.9484 16.5 18.1392 16.421 18.2798 16.2803C18.4205 16.1397 18.4995 15.9489 18.4995 15.75C18.4995 15.5511 18.4205 15.3603 18.2798 15.2197C18.1392 15.079 17.9484 15 17.7495 15H13.7495Z" fill="#D12288"/>
<path fill-rule="evenodd" clip-rule="evenodd" d="M29.1875 16.0042C29.1248 16.0008 29.0582 15.9995 28.9875 16.0002H26.2145C23.9435 16.0002 21.9995 17.7362 21.9995 20.0002C21.9995 22.2642 23.9435 24.0002 26.2145 24.0002H28.9875C29.0582 24.0008 29.1248 23.9995 29.1875 23.9962C30.1105 23.9402 30.9265 23.2392 30.9955 22.2592C30.9995 22.1952 30.9995 22.1262 30.9995 22.0622V17.9382C30.9995 17.8742 30.9995 17.8052 30.9955 17.7412C30.9265 16.7612 30.1105 16.0612 29.1875 16.0042ZM25.9705 21.0672C26.5545 21.0672 27.0285 20.5892 27.0285 20.0002C27.0285 19.4102 26.5545 18.9332 25.9705 18.9332C25.3865 18.9332 24.9105 19.4112 24.9105 20.0002C24.9105 20.5902 25.3855 21.0672 25.9705 21.0672Z" fill="#D12288"/>
<path opacity="0.5" d="M29.1395 16.002C29.1395 14.821 29.0955 13.554 28.3415 12.647C28.2676 12.5583 28.1898 12.4729 28.1085 12.391C27.3595 11.643 26.4105 11.311 25.2385 11.153C24.0985 11 22.6435 11 20.8055 11H18.6935C16.8555 11 15.3995 11 14.2595 11.153C13.0875 11.311 12.1385 11.643 11.3895 12.391C10.6415 13.14 10.3095 14.089 10.1515 15.261C9.99951 16.401 9.99951 17.856 9.99951 19.694V19.806C9.99951 21.644 9.99951 23.1 10.1525 24.239C10.3105 25.411 10.6425 26.36 11.3905 27.109C12.1395 27.857 13.0885 28.189 14.2605 28.347C15.4005 28.5 16.8555 28.5 18.6935 28.5H20.8055C22.6435 28.5 24.0995 28.5 25.2385 28.347C26.4105 28.189 27.3595 27.857 28.1085 27.109C28.3118 26.9037 28.4872 26.6837 28.6345 26.449C29.0845 25.729 29.1385 24.847 29.1385 23.999L28.9885 24H26.2145C23.9435 24 21.9995 22.264 21.9995 20C21.9995 17.736 23.9435 16 26.2145 16H28.9875C29.0402 16 29.0915 16.0007 29.1395 16.002Z" fill="#D12288"/>
</svg>
